<?xml version="1.0" encoding="utf-8"?>
<!-- Generator: Adobe Illustrator 16.0.0, SVG Export Plug-In . SVG Version: 6.00 Build 0)  -->
<!DOCTYPE svg PUBLIC "-//W3C//DTD SVG 1.1//EN" "http://www.w3.org/Graphics/SVG/1.1/DTD/svg11.dtd">
<svg version="1.1" id="Layer_1" xmlns="http://www.w3.org/2000/svg" xmlns:xlink="http://www.w3.org/1999/xlink" x="0px" y="0px"
	 width="80px" height="80px" viewBox="0 0 80 80" enable-background="new 0 0 80 80" xml:space="preserve">
<title>error</title>
<path fill="#FF3B30" d="M68.284,11.715c-15.621-15.621-40.947-15.621-56.568,0s-15.621,40.948,0,56.568
	c15.621,15.621,40.948,15.621,56.568,0C83.905,52.664,83.906,27.337,68.284,11.715C68.285,11.716,68.285,11.716,68.284,11.715z
	 M55.501,60.338c-0.693,0.689-1.812,0.689-2.506,0L41.501,48.844c-0.693-0.689-1.813-0.689-2.506,0L26.737,61.102
	c-0.693,0.689-1.813,0.689-2.507,0l-5.333-5.332c-0.689-0.693-0.689-1.814,0-2.508l12.257-12.257c0.689-0.693,0.689-1.813,0-2.507
	L19.662,27.004c-0.689-0.693-0.689-1.813,0-2.507l4.978-4.978c0.693-0.689,1.813-0.689,2.506,0L38.64,31.013
	c0.693,0.689,1.813,0.689,2.506,0l12.115-12.115c0.693-0.689,1.813-0.689,2.507,0l5.333,5.333c0.689,0.693,0.689,1.813,0,2.507
	L48.986,38.844c-0.689,0.694-0.689,1.813,0,2.507l11.458,11.502c0.689,0.693,0.689,1.812,0,2.506L55.501,60.338z"/>
</svg>
