<?xml version="1.0" encoding="utf-8"?>
<!-- Generator: Adobe Illustrator 16.0.0, SVG Export Plug-In . SVG Version: 6.00 Build 0)  -->
<!DOCTYPE svg PUBLIC "-//W3C//DTD SVG 1.1//EN" "http://www.w3.org/Graphics/SVG/1.1/DTD/svg11.dtd">
<svg version="1.1"
	 id="Layer_1" xmlns:dc="http://purl.org/dc/elements/1.1/" xmlns:cc="http://creativecommons.org/ns#" xmlns:rdf="http://www.w3.org/1999/02/22-rdf-syntax-ns#" xmlns:svg="http://www.w3.org/2000/svg" xmlns:sodipodi="http://sodipodi.sourceforge.net/DTD/sodipodi-0.dtd" xmlns:inkscape="http://www.inkscape.org/namespaces/inkscape"
	 xmlns="http://www.w3.org/2000/svg" xmlns:xlink="http://www.w3.org/1999/xlink" x="0px" y="0px" width="67.192px"
	 height="57.604px" viewBox="0 0 67.192 57.604" enable-background="new 0 0 67.192 57.604" xml:space="preserve">
<g transform="translate(0,-952.36218)">
	<path fill="#FFCC00" d="M33.422,952.366c-1.278,0.056-2.438,0.745-3.075,1.825l-29.85,50.325c-1.028,1.743-0.409,3.967,1.382,4.967
		c0.568,0.318,1.212,0.484,1.868,0.483h59.7c2.065,0.003,3.742-1.622,3.746-3.632c0.002-0.639-0.17-1.266-0.496-1.818L36.821,954.19
		C36.127,953.012,34.816,952.308,33.422,952.366z M33.597,968.366c2.209,0,4,1.791,4,4l-0.8,14.4c0,1.768-1.433,3.2-3.2,3.2
		c-1.767,0-3.2-1.433-3.2-3.2l-0.8-14.4C29.597,970.156,31.388,968.366,33.597,968.366z M33.597,992.365c2.209,0,4,1.791,4,4
		s-1.791,4-4,4s-4-1.791-4-4S31.388,992.365,33.597,992.365L33.597,992.365z"/>
</g>
</svg>
